<?xml version="1.0" standalone="no"?>
<!DOCTYPE svg PUBLIC "-//W3C//DTD SVG 20010904//EN"
 "http://www.w3.org/TR/2001/REC-SVG-20010904/DTD/svg10.dtd">
<svg version="1.0" xmlns="http://www.w3.org/2000/svg"
 width="200.000000pt" height="200.000000pt" viewBox="0 0 200.000000 200.000000"
 preserveAspectRatio="xMidYMid meet">
<metadata>
Created by potrace 1.11, written by Peter Selinger 2001-2013
</metadata>
<g transform="translate(0.000000,200.000000) scale(0.100000,-0.100000)"
fill="#000000" stroke="none">
<path d="M103 1000 l0 -1000 898 0 899 0 0 1000 0 1000 -899 0 -898 0 0 -1000z
m1357 756 c104 -36 141 -60 165 -106 33 -64 -16 -166 -89 -184 -31 -8 -52 -5
-124 19 -48 16 -89 30 -92 30 -75 12 -121 40 -143 88 -30 63 -7 139 55 176 42
26 102 20 228 -23z m-648 3 c54 -44 66 -96 37 -155 -19 -41 -30 -49 -115 -90
-111 -53 -144 -93 -140 -174 6 -128 131 -186 414 -195 76 -2 151 -6 168 -9 17
-3 46 -8 65 -10 92 -13 193 -51 294 -111 37 -22 115 -114 134 -158 40 -93 48
-226 21 -320 -33 -111 -145 -222 -279 -278 -96 -40 -148 -41 -195 -6 -93 71
-62 204 57 243 116 38 170 101 160 184 -11 83 -62 132 -172 164 -52 15 -94 19
-321 31 -52 3 -108 7 -125 10 -217 38 -353 110 -430 229 -84 127 -87 324 -8
450 72 114 245 223 358 225 31 1 49 -6 77 -30z m-267 -1226 c38 -14 170 -51
207 -58 84 -17 133 -111 100 -191 -16 -38 -73 -76 -114 -76 -102 0 -352 78
-384 120 -46 59 -37 154 19 196 50 38 86 39 172 9z"/>
</g>
</svg>
